<?xml version="1.0" encoding="utf-8"?>
<!-- Generator: Adobe Illustrator 25.0.0, SVG Export Plug-In . SVG Version: 6.00 Build 0)  -->
<svg version="1.1" id="图层_1" xmlns="http://www.w3.org/2000/svg" xmlns:xlink="http://www.w3.org/1999/xlink" x="0px" y="0px"
	 viewBox="0 0 400 400" style="enable-background:new 0 0 400 400;" xml:space="preserve">
<style type="text/css">
	.st0{fill:#D9D9D9;}
</style>
<path id="路径_608" class="st0" d="M185.3,94.8l129-0.4c12,0,21.8,9.4,21.7,21l-0.5,168.4c0,11.6-9.8,21.1-21.8,21.1l-136.1,0.8
	l65.1-41.3l-28.5-34.2l17.7-14.9c8.5-7.1,20.9-6.9,29.1,0.6l2,2.1l17.4,21.1l14,17.2l10.5,13.4l5.6,7.5l1.5,2c0.9-1.2,1.5-2.5,1.7-4
	l0.2-1.9l0.4-147.3c-0.1-5.9-4.9-10.6-10.8-10.5c0,0,0,0-0.1,0l-129.5,0.4L185.3,94.8z M85.9,94.4l66.2,0l-11.3,21l-44,0
	c-5.2-0.1-9.7,3.5-10.7,8.6l-0.2,1.9l0.7,96l34-33.9c7.8-7.8,20.3-8.6,29-1.8l2.1,1.9l53.7,54.4l-53.5,62.2l-66.2,0
	c-12,0-21.8-9.4-21.8-21L64,115.5C64,103.9,73.8,94.5,85.9,94.4L85.9,94.4z M285.3,160.3c0.8,12.1-8.3,22.6-20.4,23.5
	s-22.6-8.3-23.5-20.4s8.3-22.6,20.4-23.5C273.9,139.1,284.4,148.2,285.3,160.3L285.3,160.3z"/>
</svg>
